<?xml version="1.0"?>
<!-- Generated by SVGo -->
<svg width="168.114mm" height="109.251mm"
     viewBox="0.000 0.000 168.114 109.251"
     xmlns="http://www.w3.org/2000/svg" 
     xmlns:xlink="http://www.w3.org/1999/xlink">
<polygon points="161.114,5.001 161.271,5.007 161.427,5.025 161.581,5.056 161.732,5.098 161.879,5.153 162.022,5.218 162.159,5.295 162.290,5.382 162.413,5.480 162.528,5.586 162.635,5.702 162.732,5.825 162.819,5.956 162.896,6.093 162.962,6.235 163.016,6.382 163.059,6.534 163.089,6.688 163.108,6.844 163.114,7.001 163.114,102.251 163.108,102.408 163.089,102.564 163.059,102.718 163.016,102.870 162.962,103.017 162.896,103.159 162.819,103.296 162.732,103.427 162.635,103.550 162.528,103.666 162.413,103.772 162.290,103.870 162.159,103.957 162.022,104.034 161.879,104.099 161.732,104.154 161.581,104.196 161.427,104.227 161.271,104.245 161.114,104.251 7.001,104.251 6.844,104.245 6.688,104.227 6.534,104.196 6.382,104.154 6.235,104.099 6.093,104.034 5.956,103.957 5.825,103.870 5.702,103.772 5.586,103.666 5.480,103.550 5.382,103.427 5.295,103.296 5.218,103.159 5.153,103.017 5.098,102.870 5.056,102.718 5.025,102.564 5.007,102.408 5.000,102.252 5.001,7.001 5.007,6.844 5.025,6.688 5.056,6.534 5.098,6.382 5.153,6.235 5.218,6.093 5.295,5.956 5.382,5.825 5.480,5.702 5.586,5.586 5.702,5.480 5.825,5.382 5.956,5.295 6.093,5.218 6.235,5.153 6.382,5.098 6.534,5.056 6.688,5.025 6.844,5.007 7.001,5.000" style="fill:none;stroke-width:0.050000mm;stroke:black"/>
<polygon points="160.790,101.253 160.497,101.402 160.265,101.634 160.115,101.927 160.064,102.252 160.115,102.576 160.265,102.869 160.497,103.101 160.790,103.250 161.114,103.302 161.438,103.250 161.731,103.101 161.963,102.869 162.113,102.576 162.164,102.252 162.113,101.927 161.963,101.634 161.731,101.402 161.438,101.253 161.114,101.202" style="fill:none;stroke-width:0.050000mm;stroke:black"/>
<polygon points="6.676,101.253 6.383,101.402 6.151,101.634 6.002,101.927 5.950,102.252 6.002,102.576 6.151,102.869 6.383,103.101 6.676,103.250 7.001,103.302 7.325,103.250 7.618,103.101 7.850,102.869 7.999,102.576 8.051,102.252 7.999,101.927 7.850,101.634 7.618,101.402 7.325,101.253 7.001,101.202" style="fill:none;stroke-width:0.050000mm;stroke:black"/>
<polygon points="160.790,53.627 160.497,53.777 160.265,54.009 160.115,54.302 160.064,54.626 160.115,54.950 160.265,55.243 160.497,55.475 160.790,55.625 161.114,55.676 161.438,55.625 161.731,55.475 161.963,55.243 162.113,54.950 162.164,54.626 162.113,54.302 161.963,54.009 161.731,53.777 161.438,53.627 161.114,53.576" style="fill:none;stroke-width:0.050000mm;stroke:black"/>
<polygon points="6.676,53.627 6.383,53.777 6.151,54.009 6.002,54.302 5.950,54.626 6.002,54.950 6.151,55.243 6.383,55.475 6.676,55.625 7.001,55.676 7.325,55.625 7.618,55.475 7.850,55.243 7.999,54.950 8.051,54.626 7.999,54.302 7.850,54.009 7.618,53.777 7.325,53.627 7.001,53.576" style="fill:none;stroke-width:0.050000mm;stroke:black"/>
<polygon points="160.790,6.002 160.497,6.151 160.265,6.383 160.115,6.676 160.064,7.001 160.115,7.325 160.265,7.618 160.497,7.850 160.790,7.999 161.114,8.051 161.438,7.999 161.731,7.850 161.963,7.618 162.113,7.325 162.164,7.001 162.113,6.676 161.963,6.383 161.731,6.151 161.438,6.002 161.114,5.951" style="fill:none;stroke-width:0.050000mm;stroke:black"/>
<polygon points="6.676,6.002 6.383,6.151 6.151,6.383 6.002,6.676 5.950,7.001 6.002,7.325 6.151,7.618 6.383,7.850 6.676,7.999 7.001,8.051 7.325,7.999 7.618,7.850 7.850,7.618 7.999,7.325 8.051,7.001 7.999,6.676 7.850,6.383 7.618,6.151 7.325,6.002 7.001,5.951" style="fill:none;stroke-width:0.050000mm;stroke:black"/>
</svg>
