<?xml version="1.0"?>
<!-- Generated by SVGo -->
<svg width="168.114mm" height="109.251mm"
     viewBox="0.000 0.000 168.114 109.251"
     xmlns="http://www.w3.org/2000/svg" 
     xmlns:xlink="http://www.w3.org/1999/xlink">
<polygon points="161.114,5.001 161.271,5.007 161.427,5.025 161.581,5.056 161.732,5.098 161.879,5.153 162.022,5.218 162.159,5.295 162.290,5.382 162.413,5.480 162.528,5.586 162.635,5.702 162.732,5.825 162.819,5.956 162.896,6.093 162.962,6.235 163.016,6.382 163.059,6.534 163.089,6.688 163.108,6.844 163.114,7.001 163.114,102.251 163.108,102.408 163.089,102.564 163.059,102.718 163.016,102.870 162.962,103.017 162.896,103.159 162.819,103.296 162.732,103.427 162.635,103.550 162.528,103.666 162.413,103.772 162.290,103.870 162.159,103.957 162.022,104.034 161.879,104.099 161.732,104.154 161.581,104.196 161.427,104.227 161.271,104.245 161.114,104.251 7.001,104.251 6.844,104.245 6.688,104.227 6.534,104.196 6.382,104.154 6.235,104.099 6.093,104.034 5.956,103.957 5.825,103.870 5.702,103.772 5.586,103.666 5.480,103.550 5.382,103.427 5.295,103.296 5.218,103.159 5.153,103.017 5.098,102.870 5.056,102.718 5.025,102.564 5.007,102.408 5.000,102.252 5.001,7.001 5.007,6.844 5.025,6.688 5.056,6.534 5.098,6.382 5.153,6.235 5.218,6.093 5.295,5.956 5.382,5.825 5.480,5.702 5.586,5.586 5.702,5.480 5.825,5.382 5.956,5.295 6.093,5.218 6.235,5.153 6.382,5.098 6.534,5.056 6.688,5.025 6.844,5.007 7.001,5.000" style="fill:none;stroke-width:0.050000mm;stroke:black"/>
<polygon points="160.790,101.253 160.497,101.402 160.265,101.634 160.115,101.927 160.064,102.252 160.115,102.576 160.265,102.869 160.497,103.101 160.790,103.250 161.114,103.302 161.438,103.250 161.731,103.101 161.963,102.869 162.113,102.576 162.164,102.252 162.113,101.927 161.963,101.634 161.731,101.402 161.438,101.253 161.114,101.202" style="fill:none;stroke-width:0.050000mm;stroke:black"/>
<polygon points="6.676,101.253 6.383,101.402 6.151,101.634 6.002,101.927 5.950,102.252 6.002,102.576 6.151,102.869 6.383,103.101 6.676,103.250 7.001,103.302 7.325,103.250 7.618,103.101 7.850,102.869 7.999,102.576 8.051,102.252 7.999,101.927 7.850,101.634 7.618,101.402 7.325,101.253 7.001,101.202" style="fill:none;stroke-width:0.050000mm;stroke:black"/>
<polygon points="125.825,85.726 125.825,86.726 125.025,86.726 125.025,89.825 125.825,89.825 125.825,95.626 125.025,95.626 125.025,98.726 125.825,98.726 125.825,99.726 139.826,99.726 139.826,98.726 140.626,98.726 140.626,95.626 139.826,95.626 139.826,89.825 140.626,89.825 140.626,86.726 139.826,86.726 139.826,85.726" style="fill:none;stroke-width:0.050000mm;stroke:black"/>
<polygon points="49.626,85.726 49.626,86.726 48.826,86.726 48.826,89.825 49.626,89.825 49.626,95.626 48.826,95.626 48.826,98.726 49.626,98.726 49.626,99.726 63.626,99.726 63.626,98.726 64.426,98.726 64.426,95.626 63.626,95.626 63.626,89.825 64.426,89.825 64.426,86.726 63.626,86.726 63.626,85.726" style="fill:none;stroke-width:0.050000mm;stroke:black"/>
<polygon points="30.576,85.726 30.576,86.726 29.776,86.726 29.776,89.825 30.576,89.825 30.576,95.626 29.776,95.626 29.776,98.726 30.576,98.726 30.576,99.726 44.576,99.726 44.576,98.726 45.376,98.726 45.376,95.626 44.576,95.626 44.576,89.825 45.376,89.825 45.376,86.726 44.576,86.726 44.576,85.726" style="fill:none;stroke-width:0.050000mm;stroke:black"/>
<polygon points="11.525,85.726 11.525,86.726 10.725,86.726 10.725,89.825 11.525,89.825 11.525,95.626 10.725,95.626 10.725,98.726 11.525,98.726 11.525,99.726 25.526,99.726 25.526,98.726 26.326,98.726 26.326,95.626 25.526,95.626 25.526,89.825 26.326,89.825 26.326,86.726 25.526,86.726 25.526,85.726" style="fill:none;stroke-width:0.050000mm;stroke:black"/>
<polygon points="130.587,66.676 130.587,67.676 129.788,67.676 129.788,70.775 130.587,70.775 130.587,76.576 129.788,76.576 129.788,79.676 130.587,79.676 130.587,80.676 144.588,80.676 144.588,79.676 145.388,79.676 145.388,76.576 144.588,76.576 144.588,70.775 145.388,70.775 145.388,67.676 144.588,67.676 144.588,66.676" style="fill:none;stroke-width:0.050000mm;stroke:black"/>
<polygon points="111.538,66.676 111.538,67.676 110.738,67.676 110.738,70.775 111.538,70.775 111.538,76.576 110.738,76.576 110.738,79.676 111.538,79.676 111.538,80.676 125.538,80.676 125.538,79.676 126.338,79.676 126.338,76.576 125.538,76.576 125.538,70.775 126.338,70.775 126.338,67.676 125.538,67.676 125.538,66.676" style="fill:none;stroke-width:0.050000mm;stroke:black"/>
<polygon points="92.488,66.676 92.488,67.676 91.688,67.676 91.688,70.775 92.488,70.775 92.488,76.576 91.688,76.576 91.688,79.676 92.488,79.676 92.488,80.676 106.488,80.676 106.488,79.676 107.288,79.676 107.288,76.576 106.488,76.576 106.488,70.775 107.288,70.775 107.288,67.676 106.488,67.676 106.488,66.676" style="fill:none;stroke-width:0.050000mm;stroke:black"/>
<polygon points="73.438,66.676 73.438,67.676 72.638,67.676 72.638,70.775 73.438,70.775 73.438,76.576 72.638,76.576 72.638,79.676 73.438,79.676 73.438,80.676 87.438,80.676 87.438,79.676 88.238,79.676 88.238,76.576 87.438,76.576 87.438,70.775 88.238,70.775 88.238,67.676 87.438,67.676 87.438,66.676" style="fill:none;stroke-width:0.050000mm;stroke:black"/>
<polygon points="54.388,66.676 54.388,67.676 53.588,67.676 53.588,70.775 54.388,70.775 54.388,76.576 53.588,76.576 53.588,79.676 54.388,79.676 54.388,80.676 68.388,80.676 68.388,79.676 69.188,79.676 69.188,76.576 68.388,76.576 68.388,70.775 69.188,70.775 69.188,67.676 68.388,67.676 68.388,66.676" style="fill:none;stroke-width:0.050000mm;stroke:black"/>
<polygon points="16.287,66.676 16.287,67.676 15.488,67.676 15.488,70.775 16.287,70.775 16.287,76.576 15.488,76.576 15.488,79.676 16.287,79.676 16.287,80.676 30.288,80.676 30.288,79.676 31.088,79.676 31.088,76.576 30.288,76.576 30.288,70.775 31.088,70.775 31.088,67.676 30.288,67.676 30.288,66.676" style="fill:none;stroke-width:0.050000mm;stroke:black"/>
<polygon points="121.063,47.626 121.063,48.626 120.263,48.626 120.263,51.726 121.063,51.726 121.063,57.526 120.263,57.526 120.263,60.626 121.063,60.626 121.063,61.626 135.063,61.626 135.063,60.626 135.863,60.626 135.863,57.526 135.063,57.526 135.063,51.726 135.863,51.726 135.863,48.626 135.063,48.626 135.063,47.626" style="fill:none;stroke-width:0.050000mm;stroke:black"/>
<polygon points="102.013,47.626 102.013,48.626 101.213,48.626 101.213,51.726 102.013,51.726 102.013,57.526 101.213,57.526 101.213,60.626 102.013,60.626 102.013,61.626 116.013,61.626 116.013,60.626 116.813,60.626 116.813,57.526 116.013,57.526 116.013,51.726 116.813,51.726 116.813,48.626 116.013,48.626 116.013,47.626" style="fill:none;stroke-width:0.050000mm;stroke:black"/>
<polygon points="82.963,47.626 82.963,48.626 82.163,48.626 82.163,51.726 82.963,51.726 82.963,57.526 82.163,57.526 82.163,60.626 82.963,60.626 82.963,61.626 96.963,61.626 96.963,60.626 97.763,60.626 97.763,57.526 96.963,57.526 96.963,51.726 97.763,51.726 97.763,48.626 96.963,48.626 96.963,47.626" style="fill:none;stroke-width:0.050000mm;stroke:black"/>
<polygon points="63.913,47.626 63.913,48.626 63.113,48.626 63.113,51.726 63.913,51.726 63.913,57.526 63.113,57.526 63.113,60.626 63.913,60.626 63.913,61.626 77.913,61.626 77.913,60.626 78.713,60.626 78.713,57.526 77.913,57.526 77.913,51.726 78.713,51.726 78.713,48.626 77.913,48.626 77.913,47.626" style="fill:none;stroke-width:0.050000mm;stroke:black"/>
<polygon points="44.863,47.626 44.863,48.626 44.063,48.626 44.063,51.726 44.863,51.726 44.863,57.526 44.063,57.526 44.063,60.626 44.863,60.626 44.863,61.626 58.863,61.626 58.863,60.626 59.663,60.626 59.663,57.526 58.863,57.526 58.863,51.726 59.663,51.726 59.663,48.626 58.863,48.626 58.863,47.626" style="fill:none;stroke-width:0.050000mm;stroke:black"/>
<polygon points="160.790,53.627 160.497,53.777 160.265,54.009 160.115,54.302 160.064,54.626 160.115,54.950 160.265,55.243 160.497,55.475 160.790,55.625 161.114,55.676 161.438,55.625 161.731,55.475 161.963,55.243 162.113,54.950 162.164,54.626 162.113,54.302 161.963,54.009 161.731,53.777 161.438,53.627 161.114,53.576" style="fill:none;stroke-width:0.050000mm;stroke:black"/>
<polygon points="6.676,53.627 6.383,53.777 6.151,54.009 6.002,54.302 5.950,54.626 6.002,54.950 6.151,55.243 6.383,55.475 6.676,55.625 7.001,55.676 7.325,55.625 7.618,55.475 7.850,55.243 7.999,54.950 8.051,54.626 7.999,54.302 7.850,54.009 7.618,53.777 7.325,53.627 7.001,53.576" style="fill:none;stroke-width:0.050000mm;stroke:black"/>
<polygon points="116.301,28.576 116.301,29.576 115.501,29.576 115.501,32.675 116.301,32.675 116.301,38.476 115.501,38.476 115.501,41.576 116.301,41.576 116.301,42.576 130.301,42.576 130.301,41.576 131.101,41.576 131.101,38.476 130.301,38.476 130.301,32.675 131.101,32.675 131.101,29.576 130.301,29.576 130.301,28.576" style="fill:none;stroke-width:0.050000mm;stroke:black"/>
<polygon points="97.251,28.576 97.251,29.576 96.451,29.576 96.451,32.675 97.251,32.675 97.251,38.476 96.451,38.476 96.451,41.576 97.251,41.576 97.251,42.576 111.251,42.576 111.251,41.576 112.051,41.576 112.051,38.476 111.251,38.476 111.251,32.675 112.051,32.675 112.051,29.576 111.251,29.576 111.251,28.576" style="fill:none;stroke-width:0.050000mm;stroke:black"/>
<polygon points="78.201,28.576 78.201,29.576 77.401,29.576 77.401,32.675 78.201,32.675 78.201,38.476 77.401,38.476 77.401,41.576 78.201,41.576 78.201,42.576 92.201,42.576 92.201,41.576 93.001,41.576 93.001,38.476 92.201,38.476 92.201,32.675 93.001,32.675 93.001,29.576 92.201,29.576 92.201,28.576" style="fill:none;stroke-width:0.050000mm;stroke:black"/>
<polygon points="59.151,28.576 59.151,29.576 58.351,29.576 58.351,32.675 59.151,32.675 59.151,38.476 58.351,38.476 58.351,41.576 59.151,41.576 59.151,42.576 73.151,42.576 73.151,41.576 73.951,41.576 73.951,38.476 73.151,38.476 73.151,32.675 73.951,32.675 73.951,29.576 73.151,29.576 73.151,28.576" style="fill:none;stroke-width:0.050000mm;stroke:black"/>
<polygon points="40.101,28.576 40.101,29.576 39.301,29.576 39.301,32.675 40.101,32.675 40.101,38.476 39.301,38.476 39.301,41.576 40.101,41.576 40.101,42.576 54.101,42.576 54.101,41.576 54.901,41.576 54.901,38.476 54.101,38.476 54.101,32.675 54.901,32.675 54.901,29.576 54.101,29.576 54.101,28.576" style="fill:none;stroke-width:0.050000mm;stroke:black"/>
<polygon points="16.287,28.576 16.287,29.576 15.488,29.576 15.488,32.675 16.287,32.675 16.287,38.476 15.488,38.476 15.488,41.576 16.287,41.576 16.287,42.576 30.288,42.576 30.288,41.576 31.088,41.576 31.088,38.476 30.288,38.476 30.288,32.675 31.088,32.675 31.088,29.576 30.288,29.576 30.288,28.576" style="fill:none;stroke-width:0.050000mm;stroke:black"/>
<polygon points="125.825,9.525 125.825,10.525 125.025,10.525 125.025,13.625 125.825,13.625 125.825,19.425 125.025,19.425 125.025,22.526 125.825,22.526 125.825,23.526 139.826,23.526 139.826,22.526 140.626,22.526 140.626,19.425 139.826,19.425 139.826,13.625 140.626,13.625 140.626,10.525 139.826,10.525 139.826,9.525" style="fill:none;stroke-width:0.050000mm;stroke:black"/>
<polygon points="106.775,9.525 106.775,10.525 105.976,10.525 105.976,13.625 106.775,13.625 106.775,19.425 105.976,19.425 105.976,22.526 106.775,22.526 106.775,23.526 120.775,23.526 120.775,22.526 121.575,22.526 121.575,19.425 120.775,19.425 120.775,13.625 121.575,13.625 121.575,10.525 120.775,10.525 120.775,9.525" style="fill:none;stroke-width:0.050000mm;stroke:black"/>
<polygon points="87.726,9.525 87.726,10.525 86.926,10.525 86.926,13.625 87.726,13.625 87.726,19.425 86.926,19.425 86.926,22.526 87.726,22.526 87.726,23.526 101.726,23.526 101.726,22.526 102.525,22.526 102.525,19.425 101.726,19.425 101.726,13.625 102.525,13.625 102.525,10.525 101.726,10.525 101.726,9.525" style="fill:none;stroke-width:0.050000mm;stroke:black"/>
<polygon points="68.676,9.525 68.676,10.525 67.876,10.525 67.876,13.625 68.676,13.625 68.676,19.425 67.876,19.425 67.876,22.526 68.676,22.526 68.676,23.526 82.676,23.526 82.676,22.526 83.476,22.526 83.476,19.425 82.676,19.425 82.676,13.625 83.476,13.625 83.476,10.525 82.676,10.525 82.676,9.525" style="fill:none;stroke-width:0.050000mm;stroke:black"/>
<polygon points="49.626,9.525 49.626,10.525 48.826,10.525 48.826,13.625 49.626,13.625 49.626,19.425 48.826,19.425 48.826,22.526 49.626,22.526 49.626,23.526 63.626,23.526 63.626,22.526 64.426,22.526 64.426,19.425 63.626,19.425 63.626,13.625 64.426,13.625 64.426,10.525 63.626,10.525 63.626,9.525" style="fill:none;stroke-width:0.050000mm;stroke:black"/>
<polygon points="30.576,9.525 30.576,10.525 29.776,10.525 29.776,13.625 30.576,13.625 30.576,19.425 29.776,19.425 29.776,22.526 30.576,22.526 30.576,23.526 44.576,23.526 44.576,22.526 45.376,22.526 45.376,19.425 44.576,19.425 44.576,13.625 45.376,13.625 45.376,10.525 44.576,10.525 44.576,9.525" style="fill:none;stroke-width:0.050000mm;stroke:black"/>
<polygon points="11.525,9.525 11.525,10.525 10.725,10.525 10.725,13.625 11.525,13.625 11.525,19.425 10.725,19.425 10.725,22.526 11.525,22.526 11.525,23.526 25.526,23.526 25.526,22.526 26.326,22.526 26.326,19.425 25.526,19.425 25.526,13.625 26.326,13.625 26.326,10.525 25.526,10.525 25.526,9.525" style="fill:none;stroke-width:0.050000mm;stroke:black"/>
<polygon points="160.790,6.002 160.497,6.151 160.265,6.383 160.115,6.676 160.064,7.001 160.115,7.325 160.265,7.618 160.497,7.850 160.790,7.999 161.114,8.051 161.438,7.999 161.731,7.850 161.963,7.618 162.113,7.325 162.164,7.001 162.113,6.676 161.963,6.383 161.731,6.151 161.438,6.002 161.114,5.951" style="fill:none;stroke-width:0.050000mm;stroke:black"/>
<polygon points="6.676,6.002 6.383,6.151 6.151,6.383 6.002,6.676 5.950,7.001 6.002,7.325 6.151,7.618 6.383,7.850 6.676,7.999 7.001,8.051 7.325,7.999 7.618,7.850 7.850,7.618 7.999,7.325 8.051,7.001 7.999,6.676 7.850,6.383 7.618,6.151 7.325,6.002 7.001,5.951" style="fill:none;stroke-width:0.050000mm;stroke:black"/>
</svg>
