<?xml version="1.0" encoding="UTF-8" standalone="no"?>
<!-- Generated by SVGo -->

<svg
   width="168.114mm"
   height="109.251mm"
   viewBox="0.000 0.000 168.114 109.251"
   version="1.1"
   id="svg277"
   sodipodi:docname="left_plate.svg"
   inkscape:version="1.1.1 (3bf5ae0d25, 2021-09-20, custom)"
   xmlns:inkscape="http://www.inkscape.org/namespaces/inkscape"
   xmlns:sodipodi="http://sodipodi.sourceforge.net/DTD/sodipodi-0.dtd"
   xmlns="http://www.w3.org/2000/svg"
   xmlns:svg="http://www.w3.org/2000/svg">
  <defs
     id="defs281" />
  <sodipodi:namedview
     id="namedview279"
     pagecolor="#ffffff"
     bordercolor="#666666"
     borderopacity="1.0"
     inkscape:pageshadow="2"
     inkscape:pageopacity="0.0"
     inkscape:pagecheckerboard="0"
     inkscape:document-units="mm"
     showgrid="false"
     inkscape:zoom="2.0367281"
     inkscape:cx="317.91185"
     inkscape:cy="206.45858"
     inkscape:window-width="1920"
     inkscape:window-height="1054"
     inkscape:window-x="0"
     inkscape:window-y="0"
     inkscape:window-maximized="1"
     inkscape:current-layer="svg277" />
  <path
     style="color:#000000;fill:#000000;-inkscape-stroke:none"
     d="M 6.9980469,4.90625 6.8359375,4.9121094 6.6738281,4.9316406 6.5117187,4.9648437 6.3535156,5.0078125 6.1992187,5.0664062 6.0507812,5.1328125 5.90625,5.2148437 5.7695312,5.3046875 5.640625,5.4082031 5.5195312,5.5195312 5.4082031,5.640625 5.3046875,5.7695312 5.2148437,5.90625 5.1328125,6.0507812 5.0664062,6.1992187 5.0078125,6.3535156 4.9648437,6.5117187 4.9316406,6.6738281 4.9121094,6.8359375 4.90625,7 v 95.25391 l 0.00586,0.16211 0.019531,0.16211 0.033203,0.1621 0.042969,0.15821 0.058594,0.15429 0.066406,0.14844 0.082031,0.14453 0.089844,0.13672 0.1035156,0.12891 0.1113281,0.12109 0.1210938,0.11133 0.1289062,0.10352 0.1367188,0.0898 0.1445312,0.082 0.1484375,0.0664 0.1542969,0.0586 0.1582031,0.043 0.1621094,0.0332 0.1621094,0.0195 L 7,104.3457 h 154.11523 l 0.16211,-0.006 0.16407,-0.0195 0.16211,-0.0332 0.1582,-0.043 0.1543,-0.0586 0.14843,-0.0664 0.14453,-0.082 0.13672,-0.0898 0.12891,-0.10352 0.12109,-0.11133 0.11133,-0.12109 0.10156,-0.12891 0.0918,-0.13672 0.0801,-0.14453 0.0684,-0.14844 0.0566,-0.15429 0.0449,-0.15821 0.0312,-0.1621 0.0215,-0.16211 0.006,-0.16407 V 7 l -0.006,-0.1640625 -0.0215,-0.1621094 -0.0312,-0.1621094 -0.0449,-0.1582031 -0.0566,-0.1542969 -0.0684,-0.1484375 -0.0801,-0.1445312 -0.0918,-0.1367188 -0.10156,-0.1289062 -0.11133,-0.1210938 -0.12109,-0.1113281 -0.12891,-0.1035156 -0.13672,-0.089844 -0.14453,-0.082031 -0.14843,-0.066406 -0.1543,-0.058594 -0.1582,-0.042969 -0.16211,-0.033203 -0.16407,-0.019531 -0.16211,-0.00586 h -0.002 z m 0.00586,0.1875 154.1074238,0.00195 h 0.002 l 0.15039,0.00586 0.14844,0.017578 0.14648,0.029297 0.14453,0.039063 0.14063,0.052734 0.13477,0.0625 0.13085,0.072266 0.125,0.083984 0.11719,0.09375 0.10938,0.099609 0.10156,0.1113282 0.0937,0.1171875 0.082,0.125 0.0742,0.1308593 0.0625,0.1347657 0.0508,0.140625 0.041,0.1445312 0.0293,0.1464844 0.0176,0.1484375 0.006,0.1503906 V 102.25 l -0.006,0.15039 -0.0176,0.14844 -0.0293,0.14648 -0.041,0.14453 -0.0508,0.14063 -0.0625,0.13476 -0.0742,0.13086 -0.082,0.125 -0.0937,0.11719 -0.10156,0.11133 -0.10938,0.10156 -0.11719,0.0918 -0.125,0.084 -0.13085,0.0723 -0.13477,0.0625 -0.14063,0.0527 -0.14453,0.0391 -0.14648,0.0293 -0.14844,0.0176 -0.15234,0.006 H 7.0019531 l -0.1503906,-0.006 -0.1484375,-0.0176 -0.1464844,-0.0293 -0.1445312,-0.0391 -0.140625,-0.0527 -0.1347657,-0.0625 -0.1308593,-0.0723 -0.125,-0.084 -0.1171875,-0.0937 -0.1113282,-0.0996 -0.099609,-0.11133 -0.09375,-0.11719 -0.083984,-0.125 -0.072266,-0.13086 -0.0625,-0.13476 -0.052734,-0.14063 -0.039063,-0.14453 -0.029297,-0.14648 -0.017578,-0.14844 L 5.09375,102.25 5.0957031,7.0019531 5.1015625,6.8515625 5.1191406,6.703125 5.1484375,6.5566406 5.1875,6.4121094 5.2402344,6.2714844 5.3027344,6.1367187 5.375,6.0058594 l 0.083984,-0.125 0.09375,-0.1171875 0.099609,-0.1113282 0.1113282,-0.099609 0.1171875,-0.09375 0.125,-0.083984 0.1308593,-0.072266 0.1347657,-0.0625 L 6.4121094,5.1875 6.5566406,5.1484375 6.703125,5.1191406 6.8515625,5.1015625 Z"
     id="polygon207" />
  <path
     style="color:#000000;fill:#000000;-inkscape-stroke:none"
     d="m 161.11328,101.10547 -0.35351,0.0566 -0.0117,0.006 -0.30664,0.15625 -0.25391,0.25391 -0.16406,0.31835 -0.0547,0.35547 0.0547,0.35352 0.16406,0.32031 0.25391,0.25195 0.31836,0.16407 0.35351,0.0566 0.35352,-0.0566 0.32031,-0.16407 0.25391,-0.25195 0.1621,-0.32031 0.0566,-0.35352 -0.0566,-0.35547 -0.1621,-0.31835 -0.25391,-0.25391 -0.32031,-0.16211 z m 0,0.19141 0.29492,0.0469 0.26563,0.13477 0.21094,0.21093 0.13671,0.26758 0.0469,0.29492 -0.0469,0.29493 -0.13671,0.26562 -0.21094,0.21094 -0.26563,0.13476 -0.29492,0.0488 -0.29297,-0.0488 -0.26758,-0.13476 -0.21093,-0.21094 -0.13672,-0.26562 -0.0449,-0.29493 0.0449,-0.29492 0.13672,-0.26758 0.21093,-0.21093 0.26954,-0.13477 z"
     id="polygon209" />
  <path
     style="color:#000000;fill:#000000;-inkscape-stroke:none"
     d="m 7.0019531,101.10547 -0.3554687,0.0566 -0.013672,0.006 -0.3066406,0.15625 -0.2519532,0.25391 -0.1640625,0.31835 -0.056641,0.35547 0.056641,0.35352 0.1640625,0.32031 0.2519532,0.25195 0.3203125,0.16407 0.3554687,0.0566 0.3535156,-0.0566 0.3183594,-0.16407 0.2539063,-0.25195 0.1621094,-0.32031 0.056641,-0.35352 -0.056641,-0.35547 -0.1621094,-0.31835 -0.2539063,-0.25391 -0.3203125,-0.16211 z m 0,0.19141 0.2929688,0.0469 0.2675781,0.13477 0.2109375,0.21093 0.1347656,0.26758 0.046875,0.29492 -0.046875,0.29493 -0.1347656,0.26562 -0.2109375,0.21094 -0.2675781,0.13476 -0.2929688,0.0488 -0.296875,-0.0488 -0.265625,-0.13476 -0.2109375,-0.21094 -0.1347656,-0.26562 -0.048828,-0.29493 0.048828,-0.29492 0.1347656,-0.26758 0.2109375,-0.21093 0.2695313,-0.13477 z"
     id="polygon211" />
  <path
     style="color:#000000;fill:#000000;-inkscape-stroke:none"
     d="m 125.73047,85.630859 v 0.0957 0.904297 h -0.80078 v 3.289063 h 0.80078 v 5.611328 h -0.80078 v 3.289062 h 0.80078 v 1 h 14.18945 v -1 h 0.80078 V 95.53125 h -0.80078 v -5.611328 h 0.80078 v -3.289063 h -0.80078 v -1 z m 0.18945,0.189453 h 13.8125 v 1 h 0.79883 v 2.910157 h -0.79883 v 5.990234 h 0.79883 v 2.910156 h -0.79883 v 1 h -13.8125 v -1 h -0.80078 v -2.910156 h 0.80078 v -5.990234 h -0.80078 v -2.910157 h 0.80078 z"
     id="polygon213" />
  <path
     style="color:#000000;fill:#000000;-inkscape-stroke:none"
     d="m 49.53125,85.630859 v 0.0957 0.904297 h -0.798828 v 3.289063 h 0.798828 v 5.611328 h -0.798828 v 3.289062 h 0.798828 v 1 h 14.189453 v -1 h 0.798828 V 95.53125 h -0.798828 v -5.611328 h 0.798828 v -3.289063 h -0.798828 v -1 z m 0.189453,0.189453 H 63.53125 v 1 h 0.800781 v 2.910157 H 63.53125 v 5.990234 h 0.800781 v 2.910156 H 63.53125 v 1 H 49.720703 v -1 h -0.800781 v -2.910156 h 0.800781 v -5.990234 h -0.800781 v -2.910157 h 0.800781 z"
     id="polygon215" />
  <path
     style="color:#000000;fill:#000000;-inkscape-stroke:none"
     d="m 30.482422,85.630859 v 0.0957 0.904297 h -0.800781 v 3.289063 h 0.800781 v 5.611328 h -0.800781 v 3.289062 h 0.800781 v 1 h 14.1875 v -1 h 0.800781 V 95.53125 h -0.800781 v -5.611328 h 0.800781 v -3.289063 h -0.800781 v -1 z m 0.1875,0.189453 h 13.8125 v 1 h 0.798828 v 2.910157 h -0.798828 v 5.990234 h 0.798828 v 2.910156 h -0.798828 v 1 h -13.8125 v -1 h -0.798828 v -2.910156 h 0.798828 v -5.990234 h -0.798828 v -2.910157 h 0.798828 z"
     id="polygon217" />
  <path
     style="color:#000000;fill:#000000;-inkscape-stroke:none"
     d="m 11.429688,85.630859 v 0.0957 0.904297 h -0.798829 v 3.289063 h 0.798829 v 5.611328 h -0.798829 v 3.289062 h 0.798829 v 1 h 14.191406 v -1 h 0.798828 V 95.53125 h -0.798828 v -5.611328 h 0.798828 v -3.289063 h -0.798828 v -1 z m 0.189453,0.189453 h 13.8125 v 1 h 0.800781 v 2.910157 h -0.800781 v 5.990234 h 0.800781 v 2.910156 h -0.800781 v 1 h -13.8125 v -1 h -0.798828 v -2.910156 h 0.798828 v -5.990234 h -0.798828 v -2.910157 h 0.798828 z"
     id="polygon219" />
  <path
     style="color:#000000;fill:#000000;-inkscape-stroke:none"
     d="m 130.49219,66.582031 v 0.09375 0.90625 h -0.79883 v 3.28711 h 0.79883 v 5.613281 h -0.79883 v 3.287109 h 0.79883 v 1 h 14.18945 v -1 h 0.80078 v -3.287109 h -0.80078 v -5.613281 h 0.80078 v -3.28711 h -0.80078 v -1 z m 0.18945,0.1875 h 13.8125 v 1 h 0.79883 v 2.910156 h -0.79883 v 5.990235 h 0.79883 v 2.912109 h -0.79883 v 1 h -13.8125 v -1 h -0.79883 v -2.912109 h 0.79883 v -5.990235 h -0.79883 v -2.910156 h 0.79883 z"
     id="polygon221" />
  <path
     style="color:#000000;fill:#000000;-inkscape-stroke:none"
     d="m 111.44336,66.582031 v 0.09375 0.90625 h -0.80078 v 3.28711 h 0.80078 v 5.613281 h -0.80078 v 3.287109 h 0.80078 v 1 h 14.18945 v -1 h 0.79883 v -3.287109 h -0.79883 v -5.613281 h 0.79883 v -3.28711 h -0.79883 v -1 z m 0.18945,0.1875 h 13.81055 v 1 h 0.80078 v 2.910156 h -0.80078 v 5.990235 h 0.80078 v 2.912109 h -0.80078 v 1 h -13.81055 v -1 h -0.80078 v -2.912109 h 0.80078 v -5.990235 h -0.80078 v -2.910156 h 0.80078 z"
     id="polygon223" />
  <path
     style="color:#000000;fill:#000000;-inkscape-stroke:none"
     d="m 92.392578,66.582031 v 0.09375 0.90625 H 91.59375 v 3.28711 h 0.798828 v 5.613281 H 91.59375 v 3.287109 h 0.798828 v 1 h 14.189452 v -1 h 0.80078 v -3.287109 h -0.80078 v -5.613281 h 0.80078 v -3.28711 h -0.80078 v -1 z m 0.189453,0.1875 h 13.810549 v 1 h 0.80078 v 2.910156 h -0.80078 v 5.990235 h 0.80078 v 2.912109 h -0.80078 v 1 H 92.582031 v -1 h -0.798828 v -2.912109 h 0.798828 v -5.990235 h -0.798828 v -2.910156 h 0.798828 z"
     id="polygon225" />
  <path
     style="color:#000000;fill:#000000;-inkscape-stroke:none"
     d="m 73.34375,66.582031 v 0.09375 0.90625 h -0.800781 v 3.28711 h 0.800781 v 5.613281 h -0.800781 v 3.287109 h 0.800781 v 1 h 14.189453 v -1 h 0.798828 v -3.287109 h -0.798828 v -5.613281 h 0.798828 v -3.28711 h -0.798828 v -1 z m 0.189453,0.1875 H 87.34375 v 1 h 0.798828 v 2.910156 H 87.34375 v 5.990235 h 0.798828 v 2.912109 H 87.34375 v 1 H 73.533203 v -1 h -0.800781 v -2.912109 h 0.800781 v -5.990235 h -0.800781 v -2.910156 h 0.800781 z"
     id="polygon227" />
  <path
     style="color:#000000;fill:#000000;-inkscape-stroke:none"
     d="m 54.292969,66.582031 v 0.09375 0.90625 h -0.798828 v 3.28711 h 0.798828 v 5.613281 h -0.798828 v 3.287109 h 0.798828 v 1 h 14.189453 v -1 h 0.800781 v -3.287109 h -0.800781 v -5.613281 h 0.800781 v -3.28711 h -0.800781 v -1 z m 0.189453,0.1875 h 13.810547 v 1 h 0.800781 v 2.910156 h -0.800781 v 5.990235 h 0.800781 v 2.912109 h -0.800781 v 1 H 54.482422 v -1 h -0.800781 v -2.912109 h 0.800781 v -5.990235 h -0.800781 v -2.910156 h 0.800781 z"
     id="polygon229" />
  <path
     style="color:#000000;fill:#000000;-inkscape-stroke:none"
     d="m 16.193359,66.582031 v 0.09375 0.90625 h -0.800781 v 3.28711 h 0.800781 v 5.613281 h -0.800781 v 3.287109 h 0.800781 v 1 h 14.189453 v -1 h 0.798829 v -3.287109 h -0.798829 v -5.613281 h 0.798829 v -3.28711 h -0.798829 v -1 z m 0.1875,0.1875 h 13.8125 v 1 h 0.800782 v 2.910156 h -0.800782 v 5.990235 h 0.800782 v 2.912109 h -0.800782 v 1 h -13.8125 v -1 h -0.798828 v -2.912109 h 0.798828 v -5.990235 h -0.798828 v -2.910156 h 0.798828 z"
     id="polygon231" />
  <path
     style="color:#000000;fill:#000000;-inkscape-stroke:none"
     d="m 120.96875,47.53125 v 0.0957 0.904297 h -0.80078 v 3.289062 h 0.80078 v 5.611329 h -0.80078 v 3.289062 h 0.80078 v 1 h 14.18945 v -1 h 0.79883 v -3.289062 h -0.79883 v -5.611329 h 0.79883 V 48.53125 h -0.79883 v -1 z m 0.18945,0.189453 h 13.81055 v 1 h 0.79883 v 2.910156 h -0.79883 v 5.990235 h 0.79883 v 2.910156 h -0.79883 v 1 H 121.1582 v -1 h -0.80078 v -2.910156 h 0.80078 v -5.990235 h -0.80078 v -2.910156 h 0.80078 z"
     id="polygon233" />
  <path
     style="color:#000000;fill:#000000;-inkscape-stroke:none"
     d="m 101.91797,47.53125 v 0.0957 0.904297 h -0.79883 v 3.289062 h 0.79883 v 5.611329 h -0.79883 v 3.289062 h 0.79883 v 1 h 14.18945 v -1 h 0.80078 v -3.289062 h -0.80078 v -5.611329 h 0.80078 V 48.53125 h -0.80078 v -1 z m 0.18945,0.189453 h 13.81055 v 1 h 0.80078 v 2.910156 h -0.80078 v 5.990235 h 0.80078 v 2.910156 h -0.80078 v 1 h -13.81055 v -1 h -0.80078 v -2.910156 h 0.80078 v -5.990235 h -0.80078 v -2.910156 h 0.80078 z"
     id="polygon235" />
  <path
     style="color:#000000;fill:#000000;-inkscape-stroke:none"
     d="m 82.869141,47.53125 v 0.0957 0.904297 h -0.800782 v 3.289062 h 0.800782 v 5.611329 h -0.800782 v 3.289062 h 0.800782 v 1 h 14.1875 v -1 h 0.800781 v -3.289062 h -0.800781 v -5.611329 h 0.800781 V 48.53125 h -0.800781 v -1 z m 0.1875,0.189453 h 13.8125 v 1 h 0.798828 v 2.910156 h -0.798828 v 5.990235 h 0.798828 v 2.910156 h -0.798828 v 1 h -13.8125 v -1 h -0.798829 v -2.910156 h 0.798829 v -5.990235 h -0.798829 v -2.910156 h 0.798829 z"
     id="polygon237" />
  <path
     style="color:#000000;fill:#000000;-inkscape-stroke:none"
     d="m 63.818359,47.53125 v 0.0957 0.904297 h -0.800781 v 3.289062 h 0.800781 v 5.611329 h -0.800781 v 3.289062 h 0.800781 v 1 h 14.189453 v -1 h 0.798829 v -3.289062 h -0.798829 v -5.611329 h 0.798829 V 48.53125 h -0.798829 v -1 z m 0.189453,0.189453 h 13.810547 v 1 h 0.800782 v 2.910156 h -0.800782 v 5.990235 h 0.800782 v 2.910156 h -0.800782 v 1 H 64.007812 v -1 h -0.800781 v -2.910156 h 0.800781 v -5.990235 h -0.800781 v -2.910156 h 0.800781 z"
     id="polygon239" />
  <path
     style="color:#000000;fill:#000000;-inkscape-stroke:none"
     d="m 44.767578,47.53125 v 0.0957 0.904297 H 43.96875 v 3.289062 h 0.798828 v 5.611329 H 43.96875 v 3.289062 h 0.798828 v 1 h 14.189453 v -1 h 0.800781 v -3.289062 h -0.800781 v -5.611329 h 0.800781 V 48.53125 h -0.800781 v -1 z m 0.189453,0.189453 h 13.810547 v 1 h 0.800781 v 2.910156 h -0.800781 v 5.990235 h 0.800781 v 2.910156 h -0.800781 v 1 H 44.957031 v -1 h -0.798828 v -2.910156 h 0.798828 v -5.990235 h -0.798828 v -2.910156 h 0.798828 z"
     id="polygon241" />
  <path
     style="color:#000000;fill:#000000;-inkscape-stroke:none"
     d="m 161.11328,53.480469 -0.35351,0.05469 -0.0137,0.0078 -0.30468,0.15625 -0.25391,0.253906 -0.16406,0.318359 -0.0547,0.355469 0.0547,0.353516 0.16406,0.318359 0.25391,0.253906 0.31836,0.164063 0.35351,0.05469 0.35352,-0.05469 0.32031,-0.164063 0.25391,-0.253906 0.1621,-0.318359 0.0566,-0.353516 -0.0566,-0.355469 -0.1621,-0.318359 -0.25391,-0.253906 -0.32031,-0.164063 z m 0,0.191406 0.29492,0.04687 0.26563,0.134766 0.21094,0.210937 0.13671,0.267578 0.0469,0.294922 -0.0469,0.292969 -0.13671,0.267578 -0.21094,0.210937 -0.26563,0.134766 -0.29492,0.04687 -0.29297,-0.04687 -0.26758,-0.134766 -0.21093,-0.210937 -0.13672,-0.267578 -0.0449,-0.292969 0.0449,-0.294922 0.13672,-0.267578 0.21093,-0.210937 0.26563,-0.134766 z"
     id="polygon243" />
  <path
     style="color:#000000;fill:#000000;-inkscape-stroke:none"
     d="m 7.0019531,53.480469 -0.3554687,0.05469 -0.013672,0.0078 -0.3066406,0.15625 -0.2519532,0.253906 -0.1640625,0.318359 -0.056641,0.355469 0.056641,0.353516 0.1640625,0.318359 0.2519532,0.253906 0.3203125,0.164063 0.3554687,0.05469 0.3535156,-0.05469 0.3183594,-0.164063 0.2539063,-0.253906 0.1621094,-0.318359 0.056641,-0.353516 L 8.0898438,54.271484 7.9277344,53.953125 7.6738281,53.699219 7.3554687,53.535156 Z m 0,0.191406 0.2929688,0.04687 0.2675781,0.134766 0.2109375,0.210937 0.1347656,0.267578 0.046875,0.294922 -0.046875,0.292969 L 7.7734375,55.1875 7.5625,55.398437 7.2949219,55.533203 7.0019531,55.580078 6.7050781,55.533203 6.4394531,55.398437 6.2285156,55.1875 6.09375,54.919922 6.0449219,54.626953 6.09375,54.332031 6.2285156,54.064453 6.4394531,53.853516 6.703125,53.71875 Z"
     id="polygon245" />
  <path
     style="color:#000000;fill:#000000;-inkscape-stroke:none"
     d="m 116.20703,28.482422 v 0.09375 0.90625 h -0.80078 v 3.287109 h 0.80078 v 5.611328 h -0.80078 v 3.289063 h 0.80078 v 1 h 14.1875 v -1 h 0.80078 v -3.289063 h -0.80078 v -5.611328 h 0.80078 v -3.287109 h -0.80078 v -1 z m 0.1875,0.1875 h 13.8125 v 1 h 0.79883 v 2.910156 h -0.79883 v 5.990234 h 0.79883 v 2.91211 h -0.79883 v 1 h -13.8125 v -1 h -0.79883 v -2.91211 h 0.79883 v -5.990234 h -0.79883 v -2.910156 h 0.79883 z"
     id="polygon247" />
  <path
     style="color:#000000;fill:#000000;-inkscape-stroke:none"
     d="m 97.15625,28.482422 v 0.09375 0.90625 h -0.798828 v 3.287109 h 0.798828 v 5.611328 h -0.798828 v 3.289063 h 0.798828 v 1 h 14.18945 v -1 h 0.79883 v -3.289063 h -0.79883 v -5.611328 h 0.79883 v -3.287109 h -0.79883 v -1 z m 0.189453,0.1875 h 13.810547 v 1 h 0.80078 v 2.910156 h -0.80078 v 5.990234 h 0.80078 v 2.91211 h -0.80078 v 1 H 97.345703 v -1 h -0.800781 v -2.91211 h 0.800781 v -5.990234 h -0.800781 v -2.910156 h 0.800781 z"
     id="polygon249" />
  <path
     style="color:#000000;fill:#000000;-inkscape-stroke:none"
     d="m 78.107422,28.482422 v 0.09375 0.90625 h -0.800781 v 3.287109 h 0.800781 v 5.611328 h -0.800781 v 3.289063 h 0.800781 v 1 h 14.1875 v -1 h 0.800781 v -3.289063 h -0.800781 v -5.611328 h 0.800781 v -3.287109 h -0.800781 v -1 z m 0.1875,0.1875 h 13.8125 v 1 h 0.798828 v 2.910156 h -0.798828 v 5.990234 h 0.798828 v 2.91211 h -0.798828 v 1 h -13.8125 v -1 h -0.798828 v -2.91211 h 0.798828 v -5.990234 h -0.798828 v -2.910156 h 0.798828 z"
     id="polygon251" />
  <path
     style="color:#000000;fill:#000000;-inkscape-stroke:none"
     d="m 59.056641,28.482422 v 0.09375 0.90625 h -0.800782 v 3.287109 h 0.800782 v 5.611328 h -0.800782 v 3.289063 h 0.800782 v 1 h 14.189453 v -1 h 0.798828 v -3.289063 h -0.798828 v -5.611328 h 0.798828 v -3.287109 h -0.798828 v -1 z m 0.189453,0.1875 h 13.810547 v 1 h 0.800781 v 2.910156 h -0.800781 v 5.990234 h 0.800781 v 2.91211 h -0.800781 v 1 H 59.246094 v -1 h -0.800782 v -2.91211 h 0.800782 v -5.990234 h -0.800782 v -2.910156 h 0.800782 z"
     id="polygon253" />
  <path
     style="color:#000000;fill:#000000;-inkscape-stroke:none"
     d="m 40.005859,28.482422 v 0.09375 0.90625 h -0.798828 v 3.287109 h 0.798828 v 5.611328 h -0.798828 v 3.289063 h 0.798828 v 1 h 14.189453 v -1 h 0.800782 v -3.289063 h -0.800782 v -5.611328 h 0.800782 v -3.287109 h -0.800782 v -1 z m 0.189453,0.1875 h 13.810547 v 1 h 0.800782 v 2.910156 h -0.800782 v 5.990234 h 0.800782 v 2.91211 h -0.800782 v 1 H 40.195312 v -1 h -0.800781 v -2.91211 h 0.800781 v -5.990234 h -0.800781 v -2.910156 h 0.800781 z"
     id="polygon255" />
  <path
     style="color:#000000;fill:#000000;-inkscape-stroke:none"
     d="m 16.193359,28.482422 v 0.09375 0.90625 h -0.800781 v 3.287109 h 0.800781 v 5.611328 h -0.800781 v 3.289063 h 0.800781 v 1 h 14.189453 v -1 h 0.798829 v -3.289063 h -0.798829 v -5.611328 h 0.798829 v -3.287109 h -0.798829 v -1 z m 0.1875,0.1875 h 13.8125 v 1 h 0.800782 v 2.910156 h -0.800782 v 5.990234 h 0.800782 v 2.91211 h -0.800782 v 1 h -13.8125 v -1 h -0.798828 v -2.91211 h 0.798828 v -5.990234 h -0.798828 v -2.910156 h 0.798828 z"
     id="polygon257" />
  <path
     style="color:#000000;fill:#000000;-inkscape-stroke:none"
     d="m 125.73047,9.4296875 v 0.095703 0.9042974 h -0.80078 v 3.289062 h 0.80078 v 5.611328 h -0.80078 v 3.291016 h 0.80078 v 1 h 14.18945 v -1 h 0.80078 v -3.291016 h -0.80078 V 13.71875 h 0.80078 v -3.289062 h -0.80078 V 9.4296875 Z m 0.18945,0.1894531 h 13.8125 v 1.0000004 h 0.79883 v 2.912109 h -0.79883 v 5.988281 h 0.79883 v 2.91211 h -0.79883 v 1 h -13.8125 v -1 h -0.80078 v -2.91211 h 0.80078 V 13.53125 h -0.80078 v -2.912109 h 0.80078 z"
     id="polygon259" />
  <path
     style="color:#000000;fill:#000000;-inkscape-stroke:none"
     d="m 106.67969,9.4296875 v 0.095703 0.9042974 h -0.79883 v 3.289062 h 0.79883 v 5.611328 h -0.79883 v 3.291016 h 0.79883 v 1 h 14.18945 v -1 h 0.80078 v -3.291016 h -0.80078 V 13.71875 h 0.80078 v -3.289062 h -0.80078 V 9.4296875 Z m 0.18945,0.1894531 h 13.81055 v 1.0000004 h 0.80078 v 2.912109 h -0.80078 v 5.988281 h 0.80078 v 2.91211 h -0.80078 v 1 h -13.81055 v -1 h -0.79883 v -2.91211 h 0.79883 V 13.53125 h -0.79883 v -2.912109 h 0.79883 z"
     id="polygon261" />
  <path
     style="color:#000000;fill:#000000;-inkscape-stroke:none"
     d="m 87.630859,9.4296875 v 0.095703 0.9042974 h -0.798828 v 3.289062 h 0.798828 v 5.611328 h -0.798828 v 3.291016 h 0.798828 v 1 h 14.189451 v -1 h 0.79883 v -3.291016 h -0.79883 V 13.71875 h 0.79883 v -3.289062 h -0.79883 V 9.4296875 Z m 0.189453,0.1894531 h 13.810548 v 1.0000004 h 0.79883 v 2.912109 h -0.79883 v 5.988281 h 0.79883 v 2.91211 h -0.79883 v 1 H 87.820312 v -1 h -0.800781 v -2.91211 h 0.800781 V 13.53125 h -0.800781 v -2.912109 h 0.800781 z"
     id="polygon263" />
  <path
     style="color:#000000;fill:#000000;-inkscape-stroke:none"
     d="m 68.582031,9.4296875 v 0.095703 0.9042974 H 67.78125 v 3.289062 h 0.800781 v 5.611328 H 67.78125 v 3.291016 h 0.800781 v 1 h 14.1875 v -1 h 0.800781 V 19.330078 H 82.769531 V 13.71875 h 0.800781 V 10.429688 H 82.769531 V 9.4296875 Z m 0.1875,0.1894531 h 13.8125 v 1.0000004 h 0.798828 v 2.912109 h -0.798828 v 5.988281 h 0.798828 v 2.91211 h -0.798828 v 1 h -13.8125 v -1 h -0.798828 v -2.91211 h 0.798828 V 13.53125 h -0.798828 v -2.912109 h 0.798828 z"
     id="polygon265" />
  <path
     style="color:#000000;fill:#000000;-inkscape-stroke:none"
     d="m 49.53125,9.4296875 v 0.095703 0.9042974 h -0.798828 v 3.289062 h 0.798828 v 5.611328 h -0.798828 v 3.291016 h 0.798828 v 1 h 14.189453 v -1 h 0.798828 V 19.330078 H 63.720703 V 13.71875 h 0.798828 V 10.429688 H 63.720703 V 9.4296875 Z m 0.189453,0.1894531 H 63.53125 v 1.0000004 h 0.800781 V 13.53125 H 63.53125 v 5.988281 h 0.800781 v 2.91211 H 63.53125 v 1 H 49.720703 v -1 h -0.800781 v -2.91211 h 0.800781 V 13.53125 h -0.800781 v -2.912109 h 0.800781 z"
     id="polygon267" />
  <path
     style="color:#000000;fill:#000000;-inkscape-stroke:none"
     d="m 30.482422,9.4296875 v 0.095703 0.9042974 h -0.800781 v 3.289062 h 0.800781 v 5.611328 h -0.800781 v 3.291016 h 0.800781 v 1 h 14.1875 v -1 h 0.800781 V 19.330078 H 44.669922 V 13.71875 h 0.800781 V 10.429688 H 44.669922 V 9.4296875 Z m 0.1875,0.1894531 h 13.8125 v 1.0000004 h 0.798828 v 2.912109 h -0.798828 v 5.988281 h 0.798828 v 2.91211 h -0.798828 v 1 h -13.8125 v -1 h -0.798828 v -2.91211 h 0.798828 V 13.53125 h -0.798828 v -2.912109 h 0.798828 z"
     id="polygon269" />
  <path
     style="color:#000000;fill:#000000;-inkscape-stroke:none"
     d="m 11.429688,9.4296875 v 0.095703 0.9042974 h -0.798829 v 3.289062 h 0.798829 v 5.611328 h -0.798829 v 3.291016 h 0.798829 v 1 h 14.191406 v -1 h 0.798828 V 19.330078 H 25.621094 V 13.71875 h 0.798828 V 10.429688 H 25.621094 V 9.4296875 Z m 0.189453,0.1894531 h 13.8125 v 1.0000004 h 0.800781 v 2.912109 h -0.800781 v 5.988281 h 0.800781 v 2.91211 h -0.800781 v 1 h -13.8125 v -1 h -0.798828 v -2.91211 h 0.798828 V 13.53125 h -0.798828 v -2.912109 h 0.798828 z"
     id="polygon271" />
  <path
     style="color:#000000;fill:#000000;-inkscape-stroke:none"
     d="m 161.11328,5.8554687 -0.35351,0.054687 -0.0117,0.00781 -0.30664,0.15625 -0.25391,0.2519532 -0.16406,0.3203125 -0.0547,0.3554687 0.0547,0.3535156 0.16406,0.3183594 0.25391,0.2539063 0.31836,0.1621094 0.35351,0.056641 0.35352,-0.056641 0.32031,-0.1621094 0.25391,-0.2539063 0.1621,-0.3183594 0.0566,-0.3535156 -0.0566,-0.3554687 -0.1621,-0.3203125 -0.25391,-0.2519532 -0.32031,-0.1640625 z m 0,0.1914063 0.29492,0.046875 0.26563,0.1347656 0.21094,0.2109375 0.13671,0.265625 0.0469,0.296875 -0.0469,0.2929688 -0.13671,0.2675781 -0.21094,0.2109375 -0.26563,0.1347656 -0.29492,0.046875 -0.29297,-0.046875 -0.26758,-0.1347656 -0.21093,-0.2109375 -0.13672,-0.2675781 -0.0449,-0.2929688 0.0449,-0.296875 0.13672,-0.265625 0.21093,-0.2109375 0.26368,-0.1347656 z"
     id="polygon273" />
  <path
     style="color:#000000;fill:#000000;-inkscape-stroke:none"
     d="m 7.0019531,5.8554687 -0.3554687,0.054687 -0.013672,0.00781 -0.3066406,0.15625 L 6.0742187,6.3261719 5.9101562,6.6464844 5.8535156,7.0019531 5.9101562,7.3554687 6.0742187,7.6738281 6.3261719,7.9277344 6.6464844,8.0898438 7.0019531,8.1464844 7.3554687,8.0898438 7.6738281,7.9277344 7.9277344,7.6738281 8.0898438,7.3554687 8.1464844,7.0019531 8.0898438,6.6464844 7.9277344,6.3261719 7.6738281,6.0742187 7.3535156,5.9101562 Z m 0,0.1914063 L 7.2949219,6.09375 7.5625,6.2285156 7.7734375,6.4394531 7.9082031,6.7050781 7.9550781,7.0019531 7.9082031,7.2949219 7.7734375,7.5625 7.5625,7.7734375 7.2949219,7.9082031 7.0019531,7.9550781 6.7050781,7.9082031 6.4394531,7.7734375 6.2285156,7.5625 6.09375,7.2949219 6.0449219,7.0019531 6.09375,6.7050781 6.2285156,6.4394531 6.4394531,6.2285156 6.703125,6.09375 Z"
     id="polygon275" />
</svg>
