<?xml version="1.0"?>
<!-- Generated by SVGo -->
<svg width="182.402mm" height="109.251mm"
     viewBox="0.000 0.000 182.402 109.251"
     xmlns="http://www.w3.org/2000/svg" 
     xmlns:xlink="http://www.w3.org/1999/xlink">
<polygon points="175.402,5.001 175.558,5.007 175.714,5.025 175.868,5.056 176.020,5.098 176.167,5.153 176.309,5.218 176.446,5.295 176.577,5.382 176.700,5.480 176.816,5.586 176.922,5.702 177.020,5.825 177.107,5.956 177.184,6.093 177.249,6.235 177.304,6.382 177.346,6.534 177.377,6.688 177.395,6.844 177.402,7.001 177.402,102.251 177.395,102.408 177.377,102.564 177.346,102.718 177.304,102.870 177.249,103.017 177.184,103.159 177.107,103.296 177.020,103.427 176.922,103.550 176.816,103.666 176.700,103.772 176.577,103.870 176.446,103.957 176.309,104.034 176.167,104.099 176.020,104.154 175.868,104.196 175.714,104.227 175.558,104.245 175.401,104.251 7.001,104.251 6.844,104.245 6.688,104.227 6.534,104.196 6.382,104.154 6.235,104.099 6.093,104.034 5.956,103.957 5.825,103.870 5.702,103.772 5.586,103.666 5.480,103.550 5.382,103.427 5.295,103.296 5.218,103.159 5.153,103.017 5.098,102.870 5.056,102.718 5.025,102.564 5.007,102.408 5.000,102.252 5.001,7.001 5.007,6.844 5.025,6.688 5.056,6.534 5.098,6.382 5.153,6.235 5.218,6.093 5.295,5.956 5.382,5.825 5.480,5.702 5.586,5.586 5.702,5.480 5.825,5.382 5.956,5.295 6.093,5.218 6.235,5.153 6.382,5.098 6.534,5.056 6.688,5.025 6.844,5.007 7.001,5.000" style="fill:none;stroke-width:0.050000mm;stroke:black"/>
<polygon points="175.077,101.253 174.784,101.402 174.552,101.634 174.403,101.927 174.352,102.252 174.403,102.576 174.552,102.869 174.784,103.101 175.077,103.250 175.402,103.302 175.726,103.250 176.019,103.101 176.251,102.869 176.400,102.576 176.452,102.252 176.400,101.927 176.251,101.634 176.019,101.402 175.726,101.253 175.402,101.202" style="fill:none;stroke-width:0.050000mm;stroke:black"/>
<polygon points="6.676,101.253 6.383,101.402 6.151,101.634 6.002,101.927 5.950,102.252 6.002,102.576 6.151,102.869 6.383,103.101 6.676,103.250 7.001,103.302 7.325,103.250 7.618,103.101 7.850,102.869 7.999,102.576 8.051,102.252 7.999,101.927 7.850,101.634 7.618,101.402 7.325,101.253 7.001,101.202" style="fill:none;stroke-width:0.050000mm;stroke:black"/>
<polygon points="156.876,85.726 156.876,86.726 156.076,86.726 156.076,89.825 156.876,89.825 156.876,95.626 156.076,95.626 156.076,98.726 156.876,98.726 156.876,99.726 170.876,99.726 170.876,98.726 171.676,98.726 171.676,95.626 170.876,95.626 170.876,89.825 171.676,89.825 171.676,86.726 170.876,86.726 170.876,85.726" style="fill:none;stroke-width:0.050000mm;stroke:black"/>
<polygon points="137.826,85.726 137.826,86.726 137.025,86.726 137.025,89.825 137.826,89.825 137.826,95.626 137.025,95.626 137.025,98.726 137.826,98.726 137.826,99.726 151.826,99.726 151.826,98.726 152.626,98.726 152.626,95.626 151.826,95.626 151.826,89.825 152.626,89.825 152.626,86.726 151.826,86.726 151.826,85.726" style="fill:none;stroke-width:0.050000mm;stroke:black"/>
<polygon points="118.775,85.726 118.775,86.726 117.976,86.726 117.976,89.825 118.775,89.825 118.775,95.626 117.976,95.626 117.976,98.726 118.775,98.726 118.775,99.726 132.775,99.726 132.775,98.726 133.576,98.726 133.576,95.626 132.775,95.626 132.775,89.825 133.576,89.825 133.576,86.726 132.775,86.726 132.775,85.726" style="fill:none;stroke-width:0.050000mm;stroke:black"/>
<polygon points="99.726,85.726 99.726,86.726 98.926,86.726 98.926,89.825 99.726,89.825 99.726,95.626 98.926,95.626 98.926,98.726 99.726,98.726 99.726,99.726 113.726,99.726 113.726,98.726 114.525,98.726 114.525,95.626 113.726,95.626 113.726,89.825 114.525,89.825 114.525,86.726 113.726,86.726 113.726,85.726" style="fill:none;stroke-width:0.050000mm;stroke:black"/>
<polygon points="80.676,85.726 80.676,86.726 79.876,86.726 79.876,89.825 80.676,89.825 80.676,95.626 79.876,95.626 79.876,98.726 80.676,98.726 80.676,99.726 94.676,99.726 94.676,98.726 95.476,98.726 95.476,95.626 94.676,95.626 94.676,89.825 95.476,89.825 95.476,86.726 94.676,86.726 94.676,85.726" style="fill:none;stroke-width:0.050000mm;stroke:black"/>
<polygon points="61.626,85.726 61.626,86.726 60.826,86.726 60.826,89.825 61.626,89.825 61.626,95.626 60.826,95.626 60.826,98.726 61.626,98.726 61.626,99.726 75.626,99.726 75.626,98.726 76.426,98.726 76.426,95.626 75.626,95.626 75.626,89.825 76.426,89.825 76.426,86.726 75.626,86.726 75.626,85.726" style="fill:none;stroke-width:0.050000mm;stroke:black"/>
<polygon points="37.813,85.726 37.813,86.726 37.013,86.726 37.013,89.825 37.813,89.825 37.813,95.626 37.013,95.626 37.013,98.726 37.813,98.726 37.813,99.726 51.813,99.726 51.813,98.726 52.613,98.726 52.613,95.626 51.813,95.626 51.813,89.825 52.613,89.825 52.613,86.726 51.813,86.726 51.813,85.726" style="fill:none;stroke-width:0.050000mm;stroke:black"/>
<polygon points="137.826,66.676 137.826,67.676 137.025,67.676 137.025,70.775 137.826,70.775 137.826,76.576 137.025,76.576 137.025,79.676 137.826,79.676 137.826,80.676 151.826,80.676 151.826,79.676 152.626,79.676 152.626,76.576 151.826,76.576 151.826,70.775 152.626,70.775 152.626,67.676 151.826,67.676 151.826,66.676" style="fill:none;stroke-width:0.050000mm;stroke:black"/>
<polygon points="109.250,66.676 109.250,67.676 108.450,67.676 108.450,70.775 109.250,70.775 109.250,76.576 108.450,76.576 108.450,79.676 109.250,79.676 109.250,80.676 123.250,80.676 123.250,79.676 124.050,79.676 124.050,76.576 123.250,76.576 123.250,70.775 124.050,70.775 124.050,67.676 123.250,67.676 123.250,66.676" style="fill:none;stroke-width:0.050000mm;stroke:black"/>
<polygon points="90.200,66.676 90.200,67.676 89.400,67.676 89.400,70.775 90.200,70.775 90.200,76.576 89.400,76.576 89.400,79.676 90.200,79.676 90.200,80.676 104.200,80.676 104.200,79.676 105.000,79.676 105.000,76.576 104.200,76.576 104.200,70.775 105.000,70.775 105.000,67.676 104.200,67.676 104.200,66.676" style="fill:none;stroke-width:0.050000mm;stroke:black"/>
<polygon points="71.150,66.676 71.150,67.676 70.351,67.676 70.351,70.775 71.150,70.775 71.150,76.576 70.351,76.576 70.351,79.676 71.150,79.676 71.150,80.676 85.150,80.676 85.150,79.676 85.950,79.676 85.950,76.576 85.150,76.576 85.150,70.775 85.950,70.775 85.950,67.676 85.150,67.676 85.150,66.676" style="fill:none;stroke-width:0.050000mm;stroke:black"/>
<polygon points="52.100,66.676 52.100,67.676 51.301,67.676 51.301,70.775 52.100,70.775 52.100,76.576 51.301,76.576 51.301,79.676 52.100,79.676 52.100,80.676 66.101,80.676 66.101,79.676 66.900,79.676 66.900,76.576 66.101,76.576 66.101,70.775 66.900,70.775 66.900,67.676 66.101,67.676 66.101,66.676" style="fill:none;stroke-width:0.050000mm;stroke:black"/>
<polygon points="33.051,66.676 33.051,67.676 32.251,67.676 32.251,70.775 33.051,70.775 33.051,76.576 32.251,76.576 32.251,79.676 33.051,79.676 33.051,80.676 47.051,80.676 47.051,79.676 47.850,79.676 47.850,76.576 47.051,76.576 47.051,70.775 47.850,70.775 47.850,67.676 47.051,67.676 47.051,66.676" style="fill:none;stroke-width:0.050000mm;stroke:black"/>
<polygon points="149.732,47.626 149.732,48.626 148.932,48.626 148.932,51.726 149.732,51.726 149.732,57.526 148.932,57.526 148.932,60.626 149.732,60.626 149.732,61.626 163.732,61.626 163.732,60.626 164.532,60.626 164.532,57.526 163.732,57.526 163.732,51.726 164.532,51.726 164.532,48.626 163.732,48.626 163.732,47.626" style="fill:none;stroke-width:0.050000mm;stroke:black"/>
<polygon points="123.538,47.626 123.538,48.626 122.738,48.626 122.738,51.726 123.538,51.726 123.538,57.526 122.738,57.526 122.738,60.626 123.538,60.626 123.538,61.626 137.538,61.626 137.538,60.626 138.338,60.626 138.338,57.526 137.538,57.526 137.538,51.726 138.338,51.726 138.338,48.626 137.538,48.626 137.538,47.626" style="fill:none;stroke-width:0.050000mm;stroke:black"/>
<polygon points="104.488,47.626 104.488,48.626 103.688,48.626 103.688,51.726 104.488,51.726 104.488,57.526 103.688,57.526 103.688,60.626 104.488,60.626 104.488,61.626 118.488,61.626 118.488,60.626 119.288,60.626 119.288,57.526 118.488,57.526 118.488,51.726 119.288,51.726 119.288,48.626 118.488,48.626 118.488,47.626" style="fill:none;stroke-width:0.050000mm;stroke:black"/>
<polygon points="85.438,47.626 85.438,48.626 84.638,48.626 84.638,51.726 85.438,51.726 85.438,57.526 84.638,57.526 84.638,60.626 85.438,60.626 85.438,61.626 99.438,61.626 99.438,60.626 100.238,60.626 100.238,57.526 99.438,57.526 99.438,51.726 100.238,51.726 100.238,48.626 99.438,48.626 99.438,47.626" style="fill:none;stroke-width:0.050000mm;stroke:black"/>
<polygon points="66.388,47.626 66.388,48.626 65.588,48.626 65.588,51.726 66.388,51.726 66.388,57.526 65.588,57.526 65.588,60.626 66.388,60.626 66.388,61.626 80.388,61.626 80.388,60.626 81.188,60.626 81.188,57.526 80.388,57.526 80.388,51.726 81.188,51.726 81.188,48.626 80.388,48.626 80.388,47.626" style="fill:none;stroke-width:0.050000mm;stroke:black"/>
<polygon points="47.338,47.626 47.338,48.626 46.538,48.626 46.538,51.726 47.338,51.726 47.338,57.526 46.538,57.526 46.538,60.626 47.338,60.626 47.338,61.626 61.338,61.626 61.338,60.626 62.138,60.626 62.138,57.526 61.338,57.526 61.338,51.726 62.138,51.726 62.138,48.626 61.338,48.626 61.338,47.626" style="fill:none;stroke-width:0.050000mm;stroke:black"/>
<polygon points="28.288,47.626 28.288,48.626 27.488,48.626 27.488,51.726 28.288,51.726 28.288,57.526 27.488,57.526 27.488,60.626 28.288,60.626 28.288,61.626 42.288,61.626 42.288,60.626 43.088,60.626 43.088,57.526 42.288,57.526 42.288,51.726 43.088,51.726 43.088,48.626 42.288,48.626 42.288,47.626" style="fill:none;stroke-width:0.050000mm;stroke:black"/>
<polygon points="175.077,53.627 174.784,53.777 174.552,54.009 174.403,54.302 174.352,54.626 174.403,54.950 174.552,55.243 174.784,55.475 175.077,55.625 175.402,55.676 175.726,55.625 176.019,55.475 176.251,55.243 176.400,54.950 176.452,54.626 176.400,54.302 176.251,54.009 176.019,53.777 175.726,53.627 175.402,53.576" style="fill:none;stroke-width:0.050000mm;stroke:black"/>
<polygon points="6.676,53.627 6.383,53.777 6.151,54.009 6.002,54.302 5.950,54.626 6.002,54.950 6.151,55.243 6.383,55.475 6.676,55.625 7.001,55.676 7.325,55.625 7.618,55.475 7.850,55.243 7.999,54.950 8.051,54.626 7.999,54.302 7.850,54.009 7.618,53.777 7.325,53.627 7.001,53.576" style="fill:none;stroke-width:0.050000mm;stroke:black"/>
<polygon points="156.876,28.576 156.876,29.576 156.076,29.576 156.076,32.675 156.876,32.675 156.876,38.476 156.076,38.476 156.076,41.576 156.876,41.576 156.876,42.576 170.876,42.576 170.876,41.576 171.676,41.576 171.676,38.476 170.876,38.476 170.876,32.675 171.676,32.675 171.676,29.576 170.876,29.576 170.876,28.576" style="fill:none;stroke-width:0.050000mm;stroke:black"/>
<polygon points="137.826,28.576 137.826,29.576 137.025,29.576 137.025,32.675 137.826,32.675 137.826,38.476 137.025,38.476 137.025,41.576 137.826,41.576 137.826,42.576 151.826,42.576 151.826,41.576 152.626,41.576 152.626,38.476 151.826,38.476 151.826,32.675 152.626,32.675 152.626,29.576 151.826,29.576 151.826,28.576" style="fill:none;stroke-width:0.050000mm;stroke:black"/>
<polygon points="118.775,28.576 118.775,29.576 117.976,29.576 117.976,32.675 118.775,32.675 118.775,38.476 117.976,38.476 117.976,41.576 118.775,41.576 118.775,42.576 132.775,42.576 132.775,41.576 133.576,41.576 133.576,38.476 132.775,38.476 132.775,32.675 133.576,32.675 133.576,29.576 132.775,29.576 132.775,28.576" style="fill:none;stroke-width:0.050000mm;stroke:black"/>
<polygon points="99.726,28.576 99.726,29.576 98.926,29.576 98.926,32.675 99.726,32.675 99.726,38.476 98.926,38.476 98.926,41.576 99.726,41.576 99.726,42.576 113.726,42.576 113.726,41.576 114.525,41.576 114.525,38.476 113.726,38.476 113.726,32.675 114.525,32.675 114.525,29.576 113.726,29.576 113.726,28.576" style="fill:none;stroke-width:0.050000mm;stroke:black"/>
<polygon points="80.676,28.576 80.676,29.576 79.876,29.576 79.876,32.675 80.676,32.675 80.676,38.476 79.876,38.476 79.876,41.576 80.676,41.576 80.676,42.576 94.676,42.576 94.676,41.576 95.476,41.576 95.476,38.476 94.676,38.476 94.676,32.675 95.476,32.675 95.476,29.576 94.676,29.576 94.676,28.576" style="fill:none;stroke-width:0.050000mm;stroke:black"/>
<polygon points="61.626,28.576 61.626,29.576 60.826,29.576 60.826,32.675 61.626,32.675 61.626,38.476 60.826,38.476 60.826,41.576 61.626,41.576 61.626,42.576 75.626,42.576 75.626,41.576 76.426,41.576 76.426,38.476 75.626,38.476 75.626,32.675 76.426,32.675 76.426,29.576 75.626,29.576 75.626,28.576" style="fill:none;stroke-width:0.050000mm;stroke:black"/>
<polygon points="42.576,28.576 42.576,29.576 41.776,29.576 41.776,32.675 42.576,32.675 42.576,38.476 41.776,38.476 41.776,41.576 42.576,41.576 42.576,42.576 56.576,42.576 56.576,41.576 57.376,41.576 57.376,38.476 56.576,38.476 56.576,32.675 57.376,32.675 57.376,29.576 56.576,29.576 56.576,28.576" style="fill:none;stroke-width:0.050000mm;stroke:black"/>
<polygon points="23.526,28.576 23.526,29.576 22.725,29.576 22.725,32.675 23.526,32.675 23.526,38.476 22.725,38.476 22.725,41.576 23.526,41.576 23.526,42.576 37.526,42.576 37.526,41.576 38.325,41.576 38.325,38.476 37.526,38.476 37.526,32.675 38.325,32.675 38.325,29.576 37.526,29.576 37.526,28.576" style="fill:none;stroke-width:0.050000mm;stroke:black"/>
<polygon points="149.732,9.525 149.732,10.525 148.932,10.525 148.932,13.625 149.732,13.625 149.732,19.425 148.932,19.425 148.932,22.526 149.732,22.526 149.732,23.526 163.732,23.526 163.732,22.526 164.532,22.526 164.532,19.425 163.732,19.425 163.732,13.625 164.532,13.625 164.532,10.525 163.732,10.525 163.732,9.525" style="fill:none;stroke-width:0.050000mm;stroke:black"/>
<polygon points="123.538,9.525 123.538,10.525 122.738,10.525 122.738,13.625 123.538,13.625 123.538,19.425 122.738,19.425 122.738,22.526 123.538,22.526 123.538,23.526 137.538,23.526 137.538,22.526 138.338,22.526 138.338,19.425 137.538,19.425 137.538,13.625 138.338,13.625 138.338,10.525 137.538,10.525 137.538,9.525" style="fill:none;stroke-width:0.050000mm;stroke:black"/>
<polygon points="104.488,9.525 104.488,10.525 103.688,10.525 103.688,13.625 104.488,13.625 104.488,19.425 103.688,19.425 103.688,22.526 104.488,22.526 104.488,23.526 118.488,23.526 118.488,22.526 119.288,22.526 119.288,19.425 118.488,19.425 118.488,13.625 119.288,13.625 119.288,10.525 118.488,10.525 118.488,9.525" style="fill:none;stroke-width:0.050000mm;stroke:black"/>
<polygon points="85.438,9.525 85.438,10.525 84.638,10.525 84.638,13.625 85.438,13.625 85.438,19.425 84.638,19.425 84.638,22.526 85.438,22.526 85.438,23.526 99.438,23.526 99.438,22.526 100.238,22.526 100.238,19.425 99.438,19.425 99.438,13.625 100.238,13.625 100.238,10.525 99.438,10.525 99.438,9.525" style="fill:none;stroke-width:0.050000mm;stroke:black"/>
<polygon points="66.388,9.525 66.388,10.525 65.588,10.525 65.588,13.625 66.388,13.625 66.388,19.425 65.588,19.425 65.588,22.526 66.388,22.526 66.388,23.526 80.388,23.526 80.388,22.526 81.188,22.526 81.188,19.425 80.388,19.425 80.388,13.625 81.188,13.625 81.188,10.525 80.388,10.525 80.388,9.525" style="fill:none;stroke-width:0.050000mm;stroke:black"/>
<polygon points="47.338,9.525 47.338,10.525 46.538,10.525 46.538,13.625 47.338,13.625 47.338,19.425 46.538,19.425 46.538,22.526 47.338,22.526 47.338,23.526 61.338,23.526 61.338,22.526 62.138,22.526 62.138,19.425 61.338,19.425 61.338,13.625 62.138,13.625 62.138,10.525 61.338,10.525 61.338,9.525" style="fill:none;stroke-width:0.050000mm;stroke:black"/>
<polygon points="28.288,9.525 28.288,10.525 27.488,10.525 27.488,13.625 28.288,13.625 28.288,19.425 27.488,19.425 27.488,22.526 28.288,22.526 28.288,23.526 42.288,23.526 42.288,22.526 43.088,22.526 43.088,19.425 42.288,19.425 42.288,13.625 43.088,13.625 43.088,10.525 42.288,10.525 42.288,9.525" style="fill:none;stroke-width:0.050000mm;stroke:black"/>
<polygon points="175.077,6.002 174.784,6.151 174.552,6.383 174.403,6.676 174.352,7.001 174.403,7.325 174.552,7.618 174.784,7.850 175.077,7.999 175.402,8.051 175.726,7.999 176.019,7.850 176.251,7.618 176.400,7.325 176.452,7.001 176.400,6.676 176.251,6.383 176.019,6.151 175.726,6.002 175.402,5.951" style="fill:none;stroke-width:0.050000mm;stroke:black"/>
<polygon points="6.676,6.002 6.383,6.151 6.151,6.383 6.002,6.676 5.950,7.001 6.002,7.325 6.151,7.618 6.383,7.850 6.676,7.999 7.001,8.051 7.325,7.999 7.618,7.850 7.850,7.618 7.999,7.325 8.051,7.001 7.999,6.676 7.850,6.383 7.618,6.151 7.325,6.002 7.001,5.951" style="fill:none;stroke-width:0.050000mm;stroke:black"/>
</svg>
