<?xml version="1.0"?>
<!-- Generated by SVGo -->
<svg width="182.402mm" height="109.251mm"
     viewBox="0.000 0.000 182.402 109.251"
     xmlns="http://www.w3.org/2000/svg" 
     xmlns:xlink="http://www.w3.org/1999/xlink">
<polygon points="175.402,5.001 175.558,5.007 175.714,5.025 175.868,5.056 176.020,5.098 176.167,5.153 176.309,5.218 176.446,5.295 176.577,5.382 176.700,5.480 176.816,5.586 176.922,5.702 177.020,5.825 177.107,5.956 177.184,6.093 177.249,6.235 177.304,6.382 177.346,6.534 177.377,6.688 177.395,6.844 177.402,7.001 177.402,102.251 177.395,102.408 177.377,102.564 177.346,102.718 177.304,102.870 177.249,103.017 177.184,103.159 177.107,103.296 177.020,103.427 176.922,103.550 176.816,103.666 176.700,103.772 176.577,103.870 176.446,103.957 176.309,104.034 176.167,104.099 176.020,104.154 175.868,104.196 175.714,104.227 175.558,104.245 175.401,104.251 7.001,104.251 6.844,104.245 6.688,104.227 6.534,104.196 6.382,104.154 6.235,104.099 6.093,104.034 5.956,103.957 5.825,103.870 5.702,103.772 5.586,103.666 5.480,103.550 5.382,103.427 5.295,103.296 5.218,103.159 5.153,103.017 5.098,102.870 5.056,102.718 5.025,102.564 5.007,102.408 5.000,102.252 5.001,7.001 5.007,6.844 5.025,6.688 5.056,6.534 5.098,6.382 5.153,6.235 5.218,6.093 5.295,5.956 5.382,5.825 5.480,5.702 5.586,5.586 5.702,5.480 5.825,5.382 5.956,5.295 6.093,5.218 6.235,5.153 6.382,5.098 6.534,5.056 6.688,5.025 6.844,5.007 7.001,5.000" style="fill:none;stroke-width:0.050000mm;stroke:black"/>
<polygon points="175.077,101.253 174.784,101.402 174.552,101.634 174.403,101.927 174.352,102.252 174.403,102.576 174.552,102.869 174.784,103.101 175.077,103.250 175.402,103.302 175.726,103.250 176.019,103.101 176.251,102.869 176.400,102.576 176.452,102.252 176.400,101.927 176.251,101.634 176.019,101.402 175.726,101.253 175.402,101.202" style="fill:none;stroke-width:0.050000mm;stroke:black"/>
<polygon points="6.676,101.253 6.383,101.402 6.151,101.634 6.002,101.927 5.950,102.252 6.002,102.576 6.151,102.869 6.383,103.101 6.676,103.250 7.001,103.302 7.325,103.250 7.618,103.101 7.850,102.869 7.999,102.576 8.051,102.252 7.999,101.927 7.850,101.634 7.618,101.402 7.325,101.253 7.001,101.202" style="fill:none;stroke-width:0.050000mm;stroke:black"/>
<polygon points="175.077,53.627 174.784,53.777 174.552,54.009 174.403,54.302 174.352,54.626 174.403,54.950 174.552,55.243 174.784,55.475 175.077,55.625 175.402,55.676 175.726,55.625 176.019,55.475 176.251,55.243 176.400,54.950 176.452,54.626 176.400,54.302 176.251,54.009 176.019,53.777 175.726,53.627 175.402,53.576" style="fill:none;stroke-width:0.050000mm;stroke:black"/>
<polygon points="6.676,53.627 6.383,53.777 6.151,54.009 6.002,54.302 5.950,54.626 6.002,54.950 6.151,55.243 6.383,55.475 6.676,55.625 7.001,55.676 7.325,55.625 7.618,55.475 7.850,55.243 7.999,54.950 8.051,54.626 7.999,54.302 7.850,54.009 7.618,53.777 7.325,53.627 7.001,53.576" style="fill:none;stroke-width:0.050000mm;stroke:black"/>
<polygon points="175.077,6.002 174.784,6.151 174.552,6.383 174.403,6.676 174.352,7.001 174.403,7.325 174.552,7.618 174.784,7.850 175.077,7.999 175.402,8.051 175.726,7.999 176.019,7.850 176.251,7.618 176.400,7.325 176.452,7.001 176.400,6.676 176.251,6.383 176.019,6.151 175.726,6.002 175.402,5.951" style="fill:none;stroke-width:0.050000mm;stroke:black"/>
<polygon points="6.676,6.002 6.383,6.151 6.151,6.383 6.002,6.676 5.950,7.001 6.002,7.325 6.151,7.618 6.383,7.850 6.676,7.999 7.001,8.051 7.325,7.999 7.618,7.850 7.850,7.618 7.999,7.325 8.051,7.001 7.999,6.676 7.850,6.383 7.618,6.151 7.325,6.002 7.001,5.951" style="fill:none;stroke-width:0.050000mm;stroke:black"/>
</svg>
